<svg xmlns="http://www.w3.org/2000/svg" width="12" height="13" viewBox="0 0 12 13">
    <g fill="none" fill-rule="evenodd">
        <path fill="#FFFEFD" d="M5.355 3.617c-1.773 0-3.215 1.453-3.215 3.239 0 1.786 1.442 3.24 3.215 3.24s3.214-1.454 3.214-3.24c0-1.786-1.441-3.24-3.214-3.24m0 8.01c-2.61 0-4.731-2.139-4.731-4.77s2.121-4.77 4.731-4.77c2.608 0 4.731 2.139 4.731 4.77s-2.123 4.77-4.731 4.77"/>
        <path fill="#16110D" d="M4.732 1.53c-1.773 0-3.214 1.454-3.214 3.24 0 1.787 1.441 3.239 3.215 3.239 1.771 0 3.213-1.454 3.213-3.24 0-1.785-1.442-3.239-3.213-3.239m0 8.009C2.123 9.539 0 7.4 0 4.769 0 2.14 2.123 0 4.732 0s4.73 2.138 4.73 4.77c.002 2.63-2.121 4.769-4.73 4.769"/>
    </g>
</svg>
