<svg xmlns="http://www.w3.org/2000/svg" xmlns:xlink="http://www.w3.org/1999/xlink" width="42" height="35" viewBox="0 0 42 35">
    <defs>
        <path id="a" d="M0 1.045h40.023v33.669H.001z"/>
    </defs>
    <g fill="none" fill-rule="evenodd">
        <g transform="translate(1 .242)">
            <mask id="b" fill="#fff">
                <use xlink:href="#a"/>
            </mask>
            <path fill="#FFF" d="M35.667 19.267c0 3.864-3.581 3.825-3.581 3.825h-.954v-2.17h.593c1.733 0 1.558-1.79 1.558-1.79v-.572c-.763.989-2.151.935-2.151.935-3.409 0-3.37-3.636-3.37-3.636 0-3.904 3.464-3.752 3.464-3.752 1.355 0 2.057.935 2.057.935v-.696h2.384v6.92zm-9.143-3.381c0 3.724-4.141 3.73-4.141 3.73-4.18 0-4.05-3.73-4.05-3.73 0-3.78 4.05-3.78 4.05-3.78 4.277 0 4.14 3.78 4.14 3.78zm-9.917-3.126v6.598h-2.363V13.32c0-2.085-1.115-2.034-1.115-2.034V8.918c3.581 0 3.478 3.842 3.478 3.842zM8.89 19.617c-1.476 0-2.06-1.057-2.06-1.057v.8H4.354V9.152h2.448v3.89c.993-.97 2.087-.97 2.087-.97 3.324 0 3.45 3.729 3.45 3.729 0 3.685-3.45 3.816-3.45 3.816zm24.81-18.572H6.32C2.826 1.045 0 3.889 0 7.39v15.05c0 3.502 2.825 6.341 6.318 6.341h9.433l3.22 5.238s.032.067.101.152c.19.324.538.543.937.543s.741-.22.931-.535a.71.71 0 0 0 .11-.16l3.216-5.238H33.7c3.492 0 6.325-2.839 6.325-6.34V7.39c0-3.501-2.833-6.345-6.325-6.345z" mask="url(#b)"/>
        </g>
        <path fill="#FFF" d="M23.384 14.553c-.873 0-1.575.702-1.575 1.575 0 .867.702 1.57 1.575 1.57a1.572 1.572 0 1 0 0-3.145M32.82 14.553c-.868 0-1.575.702-1.575 1.575a1.574 1.574 0 0 0 3.148 0c0-.873-.703-1.575-1.572-1.575M9.348 14.553a1.572 1.572 0 1 0 0 3.145 1.573 1.573 0 1 0 0-3.145"/>
        <path fill="#FFF" d="M9.348 17.698a1.572 1.572 0 1 1 0-3.145 1.573 1.573 0 1 1 0 3.145"/>
    </g>
</svg>
