<svg xmlns="http://www.w3.org/2000/svg" xmlns:xlink="http://www.w3.org/1999/xlink" width="37" height="32" viewBox="0 0 37 32">
    <defs>
        <path id="a" d="M0 .928h35.576v29.928H.001z"/>
    </defs>
    <g fill="none" fill-rule="evenodd">
        <g transform="translate(0 .215)">
            <mask id="b" fill="#fff">
                <use xlink:href="#a"/>
            </mask>
            <path fill="#8F8F8F" d="M31.704 17.126c0 3.434-3.183 3.4-3.183 3.4h-.848v-1.928h.527c1.54 0 1.385-1.592 1.385-1.592v-.508c-.678.878-1.912.83-1.912.83-3.03 0-2.996-3.232-2.996-3.232 0-3.47 3.08-3.334 3.08-3.334 1.204 0 1.828.83 1.828.83v-.618h2.119v6.152zm-8.127-3.006c0 3.311-3.681 3.317-3.681 3.317-3.716 0-3.6-3.317-3.6-3.317 0-3.358 3.6-3.358 3.6-3.358 3.802 0 3.68 3.358 3.68 3.358zm-8.815-2.778v5.865h-2.1V11.84c0-1.853-.991-1.808-.991-1.808V7.927c3.182 0 3.09 3.415 3.09 3.415zm-6.86 6.095c-1.313 0-1.831-.94-1.831-.94v.711h-2.2V8.135h2.176v3.457c.882-.861 1.854-.861 1.854-.861 2.955 0 3.067 3.314 3.067 3.314 0 3.275-3.067 3.392-3.067 3.392zM29.954.928H5.617C2.512.928 0 3.456 0 6.568v13.379c0 3.113 2.51 5.636 5.616 5.636h8.385l2.862 4.656s.028.06.09.135a.964.964 0 0 0 .833.482.966.966 0 0 0 .828-.475.631.631 0 0 0 .098-.142l2.858-4.656h8.384c3.104 0 5.622-2.523 5.622-5.636V6.568c0-3.112-2.518-5.64-5.622-5.64z" mask="url(#b)"/>
        </g>
        <path fill="#8F8F8F" d="M19.897 12.936c-.776 0-1.4.624-1.4 1.4 0 .77.624 1.395 1.4 1.395a1.397 1.397 0 1 0 0-2.795M28.285 12.936a1.4 1.4 0 0 0-1.401 1.4 1.4 1.4 0 0 0 2.799 0c0-.776-.625-1.4-1.398-1.4M7.42 12.936a1.397 1.397 0 1 0 0 2.795 1.398 1.398 0 1 0 0-2.795"/>
        <path fill="#8F8F8F" d="M7.42 15.732a1.397 1.397 0 1 1 0-2.796 1.398 1.398 0 1 1 0 2.796"/>
    </g>
</svg>
