<svg xmlns="http://www.w3.org/2000/svg" xmlns:xlink="http://www.w3.org/1999/xlink" width="64" height="68" viewBox="0 0 64 68">
    <defs>
        <circle id="b" cx="31" cy="31" r="31"/>
        <filter id="a" width="106.5%" height="111.3%" x="-3.2%" y="-3.2%" filterUnits="objectBoundingBox">
            <feMorphology in="SourceAlpha" operator="dilate" radius=".5" result="shadowSpreadOuter1"/>
            <feOffset dy="3" in="shadowSpreadOuter1" result="shadowOffsetOuter1"/>
            <feComposite in="shadowOffsetOuter1" in2="SourceAlpha" operator="out" result="shadowOffsetOuter1"/>
            <feColorMatrix in="shadowOffsetOuter1" values="0 0 0 0 0.0862745098 0 0 0 0 0.0666666667 0 0 0 0 0.0509803922 0 0 0 1 0"/>
        </filter>
        <path id="c" d="M0 .536h38.402V36H0z"/>
    </defs>
    <g fill="none" fill-rule="evenodd">
        <g transform="translate(1 1)">
            <use fill="#000" filter="url(#a)" xlink:href="#b"/>
            <use fill="#FFE500" stroke="#16110D" xlink:href="#b"/>
        </g>
        <g transform="translate(13 14)">
            <mask id="d" fill="#fff">
                <use xlink:href="#c"/>
            </mask>
            <path fill="#16110D" d="M19.2.536C8.597.536 0 7.324 0 15.702c0 5.388 3.562 10.106 8.91 12.806L7.1 35.262a.563.563 0 0 0 .137.577.55.55 0 0 0 .392.16c.116 0 .23-.048.334-.127l7.781-5.255c1.129.162 2.281.252 3.456.252 10.603 0 19.203-6.789 19.203-15.167S29.803.536 19.2.536" mask="url(#d)"/>
        </g>
        <path fill="#FFE500" d="M19.738 27.3h-2.09a1.37 1.37 0 0 1-.741-.2.817.817 0 0 1-.383-.56 2.532 2.532 0 0 1-.031-.214c0-.305.109-.544.327-.71.216-.168.49-.257.822-.257h6.39c.289 0 .536.068.74.197a.829.829 0 0 1 .401.77c0 .314-.107.548-.318.721-.212.166-.485.252-.818.252h-2.09l-.001 7.2c-.003.346-.103.626-.304.833-.197.212-.47.315-.81.315-.278 0-.513-.078-.707-.226a1.048 1.048 0 0 1-.372-.627 1.21 1.21 0 0 1-.02-.295l.005-7.2zM27.047 27.675h-.028l-1.304 4.06h2.589l-1.257-4.06zm-1.337-1.794c.09-.252.225-.433.403-.54.176-.108.401-.163.677-.163h.531c.287 0 .528.06.722.175.193.114.35.34.458.668l2.668 7.737c.087.239.145.445.18.616.022.113.036.202.04.265a.973.973 0 0 1-.312.715c-.204.2-.447.293-.735.293-.511 0-.842-.211-.992-.63l-.572-1.685h-3.56l-.574 1.685c-.138.419-.469.63-.99.63-.258 0-.478-.065-.653-.2a.927.927 0 0 1-.339-.572 1.083 1.083 0 0 1-.02-.236 1.264 1.264 0 0 1 .06-.406c.041-.158.093-.32.15-.475l2.858-7.877zM31.732 26.326c0-.343.102-.622.303-.833.197-.21.468-.315.81-.315.278 0 .515.076.709.231.19.155.315.364.368.624.02.096.027.194.02.293l-.002 7.204h3.694c.296 0 .545.064.747.196.201.135.329.32.375.562.016.063.026.139.032.212 0 .305-.11.546-.327.714-.216.166-.49.253-.823.253h-4.611c-.344 0-.62-.068-.832-.212-.215-.136-.352-.366-.419-.683a3.134 3.134 0 0 1-.048-.45l.004-7.796zM39.01 26.326c.003-.343.1-.622.3-.833.2-.21.47-.315.811-.315.278 0 .515.076.706.231.197.155.32.364.372.624.02.096.028.194.022.293l.006 3.348 3.473-3.992c.156-.17.294-.295.42-.38a.826.826 0 0 1 .46-.124c.245 0 .465.069.663.206.2.131.32.31.368.54 0 .007.007.04.016.085a.391.391 0 0 0 .005.093c-.001.16-.035.3-.102.42a2.04 2.04 0 0 1-.263.37l-2.272 2.48 2.688 4.257.08.129c.184.288.29.5.318.64.004.01.007.037.017.07a.453.453 0 0 0 0 .072c0 .395-.11.677-.332.849a1.282 1.282 0 0 1-.804.258c-.226 0-.408-.04-.55-.12-.145-.091-.29-.245-.435-.481l-2.548-4.1-1.214 1.264.012 2.29c-.004.345-.103.625-.303.832-.201.212-.473.315-.81.315-.28 0-.517-.078-.71-.226a1.041 1.041 0 0 1-.37-.626 1.413 1.413 0 0 1-.021-.295l-.003-8.174z"/>
    </g>
</svg>
